<mxfile host="app.diagrams.net" modified="2023-10-09T02:02:33.911Z" agent="Mozilla/5.0 (Windows NT 10.0; Win64; x64) AppleWebKit/537.36 (KHTML, like Gecko) Chrome/117.0.0.0 Safari/537.36" version="22.0.4" etag="j9lvbH0J461u-CFae_e1" type="github">
  <diagram name="Page-1" id="GJkyr-3cP3ebqhDGxpdY">
    <mxGraphModel>
      <root>
        <mxCell id="0" />
        <mxCell id="1" parent="0" />
      </root>
    </mxGraphModel>
  </diagram>
</mxfile>
